<?xml version="1.0" encoding="UTF-8"?>
<svg id="Layer_1" data-name="Layer 1" xmlns="http://www.w3.org/2000/svg" viewBox="0 0 160 160">
  <defs>
    <style>
      .cls-1 {
        fill: #b3b2b3;
        font-family: AutoPro-LightSmallCaps, 'Auto Pro';
        font-size: 15.79px;
        font-weight: 300;
      }

      .cls-2 {
        letter-spacing: -.01em;
      }

      .cls-3 {
        fill: #404041;
        stroke-width: 0px;
      }

      .cls-4 {
        letter-spacing: -.01em;
      }

      .cls-5 {
        letter-spacing: 0em;
      }
    </style>
  </defs>
  <text class="cls-1" transform="translate(90.04 93.53) rotate(-90) scale(1.19 1)"><tspan class="cls-2" x="0" y="0">c</tspan><tspan class="cls-4" x="8.15" y="0">od</tspan><tspan class="cls-5" x="26.38" y="0">e</tspan><tspan x="34.13" y="0">s</tspan></text>
  <g>
    <path class="cls-3" d="M68.93,96.02h-28.17l-6.32,17.59h-9.14l25.67-67.23h7.76l25.72,67.23h-9.1l-6.42-17.59ZM43.44,88.77h22.86l-11.45-31.45-11.4,31.45Z"/>
    <path class="cls-3" d="M116.14,45.92h8.91v47.61c0,6.43-1.93,11.46-5.8,15.1-3.86,3.64-9,5.45-15.44,5.45s-11.88-1.71-15.6-5.13c-3.73-3.42-5.59-8.2-5.59-14.36h8.86c0,3.85,1.05,6.85,3.16,9.01,2.11,2.15,5.16,3.23,9.17,3.23,3.66,0,6.63-1.15,8.89-3.46,2.26-2.31,3.41-5.54,3.44-9.69v-47.74Z"/>
  </g>
</svg>