<?xml version="1.0" encoding="UTF-8"?>
<svg id="Layer_1" data-name="Layer 1" xmlns="http://www.w3.org/2000/svg" viewBox="0 0 160 160">
  <defs>
    <style>
      .cls-1 {
        fill: #333;
      }

      .cls-1, .cls-2 {
        stroke-width: 0px;
      }

      .cls-2, .cls-3 {
        fill: #b3b3b3;
      }

      .cls-4 {
        letter-spacing: .03em;
      }

      .cls-3 {
        font-family: Roboto-Regular, Roboto;
        font-size: 6.53px;
      }

      .cls-5 {
        letter-spacing: .02em;
      }

      .cls-6 {
        letter-spacing: .02em;
      }
    </style>
  </defs>
  <path class="cls-2" d="M72,90.7h-12.01l-2.69,7.5h-3.9l10.94-28.65h3.31l10.96,28.65h-3.88l-2.74-7.5ZM61.13,87.61h9.74l-4.88-13.4-4.86,13.4Z"/>
  <path class="cls-2" d="M92.12,69.35h3.8v20.29c0,2.74-.82,4.89-2.47,6.43-1.64,1.55-3.84,2.32-6.58,2.32s-5.06-.73-6.65-2.19c-1.59-1.46-2.38-3.5-2.38-6.12h3.78c0,1.64.45,2.92,1.35,3.84.9.92,2.2,1.38,3.91,1.38,1.56,0,2.83-.49,3.79-1.48s1.45-2.36,1.47-4.13v-20.35Z"/>
  <path class="cls-1" d="M32.88,83.6l22.26,9.49-1.9,5.11-26.6-12.32v-4.75l28.67-12.29-.33,5.77-22.09,8.99Z"/>
  <path class="cls-1" d="M117.55,83.95l-21.49-9.72v-4.88l27.77,12.29v4.75l-27.77,12.33v-4.86l21.49-9.9Z"/>
  <text class="cls-3" transform="translate(81.34 89.53) rotate(-90) scale(1.09 1)"><tspan class="cls-4" x="0" y="0">c</tspan><tspan class="cls-5" x="3.58" y="0">od</tspan><tspan class="cls-6" x="11.26" y="0">e</tspan><tspan x="14.84" y="0">s</tspan></text>
</svg>