<svg width="76" height="52" viewBox="0 0 76 52" fill="none" xmlns="http://www.w3.org/2000/svg">
<path d="M33.3045 38.2105H12.1241L7.37218 51.4361H0.5L19.8008 0.887222H25.6353L44.9737 51.4361H38.1316L33.3045 38.2105ZM14.1391 32.7594H31.3271L22.718 9.11278L14.1466 32.7594H14.1391Z" fill="#242424"/>
<path d="M50.2657 33.4097C50.2657 33.9118 50.1472 34.3441 49.9101 34.7067C49.673 35.0693 49.3464 35.3482 48.9304 35.5434C48.5143 35.7387 48.039 35.8363 47.5044 35.8363C46.9605 35.8363 46.4806 35.7364 46.0645 35.5365C45.6462 35.3343 45.3196 35.053 45.0848 34.6927C44.8478 34.3302 44.7292 33.9071 44.7292 33.4237C44.7292 33.0471 44.7989 32.7078 44.9384 32.4056C45.0779 32.1035 45.2731 31.8559 45.5241 31.663C45.7751 31.4701 46.068 31.3504 46.4027 31.3039V32.1267C46.1587 32.1895 45.9425 32.3289 45.7542 32.5451C45.5636 32.7589 45.4683 33.0471 45.4683 33.4097C45.4683 33.7305 45.552 34.0117 45.7194 34.2535C45.8844 34.4929 46.118 34.68 46.4201 34.8148C46.72 34.9473 47.0721 35.0135 47.4765 35.0135C47.8903 35.0135 48.2505 34.9484 48.5573 34.8183C48.8641 34.6858 49.1024 34.4998 49.2721 34.2604C49.4417 34.0187 49.5266 33.7351 49.5266 33.4097C49.5266 33.1959 49.4894 33.0018 49.415 32.8275C49.3406 32.6532 49.2337 32.5056 49.0942 32.3847C48.9548 32.2639 48.7874 32.1779 48.5922 32.1267V31.3039C48.9083 31.3504 49.193 31.4655 49.4464 31.6491C49.6974 31.8304 49.8973 32.0709 50.046 32.3708C50.1925 32.6683 50.2657 33.0146 50.2657 33.4097ZM50.2564 28.1695C50.2564 28.6127 50.1509 29.0015 49.94 29.3361C49.7291 29.6684 49.434 29.9284 49.0547 30.1159C48.6754 30.3013 48.2323 30.3939 47.7252 30.3939C47.2138 30.3939 46.7674 30.3013 46.386 30.1159C46.0046 29.9284 45.7085 29.6684 45.4975 29.3361C45.2866 29.0015 45.1811 28.6127 45.1811 28.1695C45.1811 27.7263 45.2866 27.3385 45.4975 27.0062C45.7085 26.6716 46.0046 26.4117 46.386 26.2263C46.7674 26.0388 47.2138 25.9451 47.7252 25.9451C48.2323 25.9451 48.6754 26.0388 49.0547 26.2263C49.434 26.4117 49.7291 26.6716 49.94 27.0062C50.1509 27.3385 50.2564 27.7263 50.2564 28.1695ZM49.5788 28.1695C49.5788 27.8329 49.4926 27.5559 49.32 27.3385C49.1474 27.1212 48.9205 26.9603 48.6392 26.8559C48.358 26.7515 48.0533 26.6993 47.7252 26.6993C47.397 26.6993 47.0913 26.7515 46.8079 26.8559C46.5245 26.9603 46.2955 27.1212 46.1207 27.3385C45.946 27.5559 45.8587 27.8329 45.8587 28.1695C45.8587 28.5062 45.946 28.7831 46.1207 29.0005C46.2955 29.2178 46.5245 29.3787 46.8079 29.4831C47.0913 29.5875 47.397 29.6397 47.7252 29.6397C48.0533 29.6397 48.358 29.5875 48.6392 29.4831C48.9205 29.3787 49.1474 29.2178 49.32 29.0005C49.4926 28.7831 49.5788 28.5062 49.5788 28.1695ZM50.2564 22.94C50.2564 23.3491 50.1531 23.7103 49.9464 24.0235C49.7376 24.3367 49.4435 24.5817 49.0643 24.7585C48.6829 24.9354 48.2323 25.0238 47.7124 25.0238C47.1967 25.0238 46.7493 24.9354 46.37 24.7585C45.9908 24.5817 45.6978 24.3356 45.4911 24.0203C45.2845 23.7049 45.1811 23.3406 45.1811 22.9272C45.1811 22.6076 45.2344 22.3551 45.3409 22.1698C45.4453 21.9823 45.5646 21.8395 45.6989 21.7415C45.831 21.6414 45.9396 21.5636 46.0249 21.5082V21.4443H43.6087V20.69H50.1541V21.4187H49.3999V21.5082C49.4894 21.5636 49.6023 21.6424 49.7386 21.7447C49.8729 21.847 49.9933 21.9929 50.0998 22.1826C50.2042 22.3722 50.2564 22.6247 50.2564 22.94ZM49.5788 22.8377C49.5788 22.5352 49.5 22.2795 49.3423 22.0707C49.1825 21.8619 48.962 21.7032 48.6808 21.5945C48.3974 21.4858 48.0703 21.4315 47.6996 21.4315C47.3331 21.4315 47.0124 21.4848 46.7376 21.5913C46.4606 21.6978 46.2454 21.8555 46.092 22.0643C45.9364 22.2731 45.8587 22.5309 45.8587 22.8377C45.8587 23.1573 45.9407 23.4237 46.1048 23.6367C46.2667 23.8477 46.4872 24.0064 46.7663 24.113C47.0433 24.2174 47.3544 24.2696 47.6996 24.2696C48.049 24.2696 48.3665 24.2163 48.652 24.1098C48.9354 24.0011 49.1612 23.8413 49.3296 23.6304C49.4957 23.4173 49.5788 23.1531 49.5788 22.8377ZM50.2564 17.1456C50.2564 17.6186 50.152 18.0267 49.9432 18.3697C49.7323 18.7106 49.4382 18.9737 49.0611 19.1591C48.6818 19.3424 48.2408 19.434 47.7379 19.434C47.2351 19.434 46.7919 19.3424 46.4084 19.1591C46.0227 18.9737 45.7223 18.7159 45.5071 18.3857C45.2898 18.0533 45.1811 17.6655 45.1811 17.2223C45.1811 16.9666 45.2237 16.7142 45.309 16.4649C45.3942 16.2156 45.5327 15.9887 45.7244 15.7841C45.9141 15.5796 46.1655 15.4166 46.4787 15.2951C46.7919 15.1737 47.1776 15.113 47.6357 15.113H47.9553V18.897H47.3033V15.88C47.0263 15.88 46.7791 15.9354 46.5618 16.0462C46.3445 16.1549 46.1729 16.3104 46.0472 16.5128C45.9215 16.7131 45.8587 16.9496 45.8587 17.2223C45.8587 17.5228 45.9332 17.7827 46.0824 18.0022C46.2294 18.2195 46.4212 18.3867 46.6577 18.5039C46.8942 18.6211 47.1477 18.6797 47.4183 18.6797H47.853C48.2237 18.6797 48.538 18.6158 48.7958 18.488C49.0515 18.358 49.2465 18.1779 49.3807 17.9478C49.5128 17.7177 49.5788 17.4503 49.5788 17.1456C49.5788 16.9475 49.5511 16.7685 49.4957 16.6087C49.4382 16.4468 49.353 16.3072 49.2401 16.19C49.125 16.0728 48.9823 15.9823 48.8118 15.9184L49.0163 15.1897C49.2635 15.2664 49.4808 15.3953 49.6683 15.5764C49.8537 15.7575 49.9986 15.9812 50.103 16.2475C50.2053 16.5139 50.2564 16.8132 50.2564 17.1456ZM46.3445 10.4883L46.5362 11.1659C46.4233 11.2085 46.3136 11.2713 46.207 11.3544C46.0984 11.4354 46.0089 11.5462 45.9386 11.6868C45.8683 11.8274 45.8331 12.0075 45.8331 12.2269C45.8331 12.5274 45.9024 12.7777 46.0408 12.978C46.1772 13.1762 46.3509 13.2752 46.5618 13.2752C46.7493 13.2752 46.8974 13.2071 47.006 13.0707C47.1147 12.9343 47.2053 12.7213 47.2777 12.4315L47.4567 11.7028C47.5632 11.2639 47.7262 10.9368 47.9457 10.7216C48.163 10.5064 48.4432 10.3988 48.7862 10.3988C49.0675 10.3988 49.3189 10.4798 49.5405 10.6417C49.7621 10.8015 49.9368 11.0252 50.0646 11.3129C50.1925 11.6005 50.2564 11.935 50.2564 12.3164C50.2564 12.8171 50.1477 13.2316 49.9304 13.5597C49.7131 13.8878 49.3956 14.0956 48.978 14.1829L48.799 13.467C49.0632 13.3988 49.2614 13.2699 49.3935 13.0803C49.5256 12.8885 49.5916 12.6382 49.5916 12.3292C49.5916 11.9777 49.5171 11.6985 49.3679 11.4919C49.2166 11.2831 49.0355 11.1786 48.8246 11.1786C48.6541 11.1786 48.5114 11.2383 48.3963 11.3576C48.2791 11.4769 48.1918 11.6602 48.1342 11.9073L47.9425 12.7255C47.8359 13.1751 47.6708 13.5054 47.4471 13.7163C47.2212 13.9251 46.9389 14.0295 46.6002 14.0295C46.3232 14.0295 46.0781 13.9517 45.8651 13.7962C45.652 13.6385 45.4847 13.4244 45.3633 13.1538C45.2418 12.8811 45.1811 12.5721 45.1811 12.2269C45.1811 11.7411 45.2877 11.3598 45.5007 11.0828C45.7138 10.8036 45.995 10.6055 46.3445 10.4883Z" fill="#242424"/>
<path d="M68.8008 0.541351H75.5V36.3383C75.5 41.1729 74.0489 44.9549 71.1391 47.6917C68.2368 50.4286 64.3722 51.7895 59.5301 51.7895C54.688 51.7895 50.5977 50.5038 47.8008 47.9323C44.9962 45.3609 43.5977 41.7669 43.5977 37.1353H50.2594C50.2594 40.0301 51.0489 42.2857 52.6353 43.9098C54.2218 45.5263 56.515 46.3383 59.5301 46.3383C62.282 46.3383 64.515 45.4737 66.2143 43.7368C67.9135 42 68.7782 39.5714 68.8008 36.4511V0.556389V0.541351Z" fill="#242424"/>
</svg>
